<svg width="27" height="24" viewBox="0 0 27 24" fill="none" xmlns="http://www.w3.org/2000/svg">
<path d="M2.82278 11.8142L1.48975 17.4384L6.17661 15.9444L2.82278 11.8142Z" fill="#FD9173"/>
<path d="M1.4998 18.3856L0 24H8.54445L11.7959 21.7096L7.26046 16.76L1.4998 18.3856Z" fill="#FD9173"/>
<path d="M10.4204 24H25.9737L18.2657 18.4708L10.4204 24Z" fill="#FDB5A1"/>
<path d="M26.6831 23.1777L24.2911 14.2267L19.2041 17.8125L26.6831 23.1777Z" fill="#FD9173"/>
<path d="M16.4878 12.7516L22.112 11.8142H17.7721C17.3287 12.1529 16.8904 12.47 16.4878 12.7516Z" fill="#FD9173"/>
<path d="M11.8007 14.4573C11.2357 13.8375 10.4007 12.8904 9.54836 11.8142H4.30176L7.80177 15.5637L11.8007 14.4573Z" fill="#FDB5A1"/>
<path d="M14.1405 14.9895L13.165 16.0479L12.2988 15.1034L8.05127 16.3247L12.4135 21.1879L23.9866 12.8638L23.7128 11.8142L14.6495 14.4268C14.4068 14.6991 14.2267 14.8935 14.1405 14.9895Z" fill="#FDB5A1"/>
<path d="M10.3493 5.24353C10.3493 3.80746 11.7373 2.64418 13.4484 2.64418C15.1617 2.64418 16.5497 3.80746 16.5497 5.24353C16.5497 6.67749 15.1617 7.84309 13.4484 7.84309C11.7373 7.84309 10.3493 6.67749 10.3493 5.24353ZM19.5876 5.14351C19.5876 2.3033 16.8397 0 13.4509 0C10.0621 0 7.31641 2.3033 7.31641 5.14351C7.31641 7.9816 13.4509 14.5185 13.4509 14.5185C13.4509 14.5185 19.5876 7.98372 19.5876 5.14351Z" fill="#FC6C44"/>
</svg>
